<svg width="22" height="22" viewBox="0 0 22 22" fill="none" xmlns="http://www.w3.org/2000/svg">
<g clip-path="url(#clip0_238_42)">
<path d="M11.0003 2.33337C14.2669 2.33355 16.9163 4.9837 16.9163 8.25037C16.9162 9.35225 16.546 10.6239 15.9573 11.9379C15.3716 13.2454 14.5869 14.559 13.7943 15.7338C13.0026 16.9071 12.2097 17.9331 11.6146 18.6664C11.3724 18.9648 11.1619 19.2131 10.9993 19.4037C10.8369 19.2133 10.6279 18.9643 10.386 18.6664C9.79099 17.9332 8.99796 16.907 8.20636 15.7338C7.41372 14.559 6.62809 13.2454 6.0423 11.9379C5.45363 10.6239 5.08339 9.35225 5.08331 8.25037C5.08331 4.98359 7.73353 2.33337 11.0003 2.33337ZM11.0003 5.45837C9.45916 5.45837 8.20831 6.70922 8.20831 8.25037C8.20849 9.79136 9.45927 11.0414 11.0003 11.0414C12.5412 11.0412 13.7911 9.79125 13.7913 8.25037C13.7913 6.70933 12.5413 5.45855 11.0003 5.45837Z" stroke="white"/>
</g>
<defs>
<clipPath id="clip0_238_42">
<rect width="22" height="22" fill="white"/>
</clipPath>
</defs>
</svg>
