<svg width="24" height="22" viewBox="0 0 24 22" fill="none" xmlns="http://www.w3.org/2000/svg">
<path d="M5.30769 17.5556C5.80769 17.1413 6.38462 16.9341 7.03846 16.9341C7.69231 16.9341 8.25 17.1413 8.71154 17.5556C9.17308 17.9699 9.40385 18.4705 9.40385 19.0574C9.40385 19.6443 9.17308 20.1449 8.71154 20.5592C8.25 21.008 7.69231 21.2324 7.03846 21.2324C6.38462 21.2324 5.80769 21.008 5.30769 20.5592C4.84615 20.1449 4.61538 19.6443 4.61538 19.0574C4.61538 18.4705 4.84615 17.9699 5.30769 17.5556ZM0 0H3.92308L5.01923 2.17503H22.7885C23.0962 2.17503 23.3654 2.2786 23.5962 2.48574C23.8654 2.69289 24 2.93456 24 3.21075C24 3.4179 23.9615 3.59052 23.8846 3.72862L19.5577 10.409C19.1346 11.1686 18.4423 11.5483 17.4808 11.5483H8.53846L7.32692 13.2055C7.25 13.3781 7.21154 13.4817 7.21154 13.5162C7.21154 13.6889 7.30769 13.7752 7.5 13.7752H21.2308V15.8466H7.21154C6.44231 15.8466 5.80769 15.6567 5.30769 15.277C4.84615 14.8972 4.61538 14.3621 4.61538 13.6716C4.61538 13.2573 4.71154 12.9121 4.90385 12.6359L6.69231 9.99476L2.42308 2.17503H0V0ZM17.1346 17.5556C17.5962 17.1413 18.1538 16.9341 18.8077 16.9341C19.4615 16.9341 20.0192 17.1413 20.4808 17.5556C20.9808 17.9699 21.2308 18.4705 21.2308 19.0574C21.2308 19.6443 20.9808 20.1449 20.4808 20.5592C20.0192 21.008 19.4615 21.2324 18.8077 21.2324C18.1538 21.2324 17.5962 21.008 17.1346 20.5592C16.6731 20.1449 16.4423 19.6443 16.4423 19.0574C16.4423 18.4705 16.6731 17.9699 17.1346 17.5556Z" fill="#213FDF"/>
</svg>
