<svg width="19" height="19" viewBox="0 0 19 19" fill="none" xmlns="http://www.w3.org/2000/svg">
<g clip-path="url(#clip0_247_490)">
<path d="M5.24479 8.54604C6.38479 10.7865 8.2175 12.6192 10.4619 13.7592L12.2035 12.0135C12.4213 11.7958 12.734 11.7325 13.0071 11.8196C13.8938 12.1125 14.8477 12.2708 15.8333 12.2708C16.2727 12.2708 16.625 12.6231 16.625 13.0625V15.8333C16.625 16.2727 16.2727 16.625 15.8333 16.625C8.39958 16.625 2.375 10.6004 2.375 3.16667C2.375 2.72729 2.73125 2.375 3.16667 2.375H5.9375C6.37687 2.375 6.72917 2.72729 6.72917 3.16667C6.72917 4.15229 6.8875 5.10625 7.18042 5.99292C7.2675 6.26604 7.20417 6.57875 6.98646 6.79646L5.24479 8.54604Z" fill="#DEDEDE"/>
</g>
<defs>
<clipPath id="clip0_247_490">
<rect width="19" height="19" fill="white"/>
</clipPath>
</defs>
</svg>
