<svg width="26" height="26" viewBox="0 0 26 26" fill="none" xmlns="http://www.w3.org/2000/svg">
<path fill-rule="evenodd" clip-rule="evenodd" d="M26 13C26 5.83204 20.168 0 13 0C5.83204 0 0 5.83204 0 13C0 16.7861 1.62807 20.1987 4.21956 22.5765L4.2068 22.5874L4.62847 22.9429L4.71262 23.0081C4.93716 23.1939 5.16927 23.3702 5.40564 23.5409C5.48222 23.5962 5.55833 23.652 5.63633 23.7054C5.88876 23.8793 6.14782 24.0443 6.41255 24.2008C6.47022 24.2348 6.52836 24.2679 6.58651 24.301C6.87629 24.466 7.17222 24.6211 7.47524 24.7643L7.54236 24.7945C8.52989 25.2531 9.58407 25.5906 10.686 25.7896L10.773 25.8052C11.1152 25.8643 11.4613 25.9116 11.8116 25.9433C11.8541 25.9471 11.8971 25.9499 11.9397 25.9532C12.29 25.9816 12.6426 26 13 26C13.3541 26 13.7039 25.9816 14.0504 25.9537C14.0944 25.9504 14.1383 25.948 14.1823 25.9437C14.5297 25.9121 14.8729 25.8662 15.2119 25.8081L15.3003 25.792C16.3861 25.5972 17.4247 25.2677 18.4 24.8205L18.5077 24.7719C18.7994 24.6348 19.0845 24.4868 19.3639 24.3294C19.4333 24.2901 19.5024 24.2504 19.5714 24.2098C19.8262 24.0599 20.0758 23.9035 20.3188 23.7371C20.4067 23.6775 20.4918 23.6146 20.5783 23.5527C20.7858 23.4033 20.9896 23.2492 21.1876 23.088C21.2316 23.0521 21.2789 23.0218 21.3219 22.9854L21.7544 22.6243L21.7417 22.6134C24.3563 20.2337 26 16.8055 26 13ZM0.945455 13C0.945455 6.35298 6.35345 0.945455 13 0.945455C19.6465 0.945455 25.0545 6.35298 25.0545 13C25.0545 16.5819 23.4827 19.8021 20.9943 22.0116C20.8553 21.9156 20.7154 21.8296 20.5721 21.7577L16.5696 19.7567C16.2103 19.5771 15.9867 19.2159 15.9867 18.8145V17.4167C16.0798 17.3023 16.1777 17.1728 16.2784 17.03C16.7965 16.2987 17.212 15.4847 17.5155 14.6082C18.114 14.3241 18.5011 13.7271 18.5011 13.0534V11.3776C18.5011 10.9677 18.3503 10.5702 18.0818 10.2577V8.05149C18.1064 7.80615 18.1934 6.42153 17.1917 5.27942C16.3204 4.28527 14.9103 3.78182 13 3.78182C11.0897 3.78182 9.67956 4.28527 8.80833 5.27942C7.80662 6.42153 7.8936 7.80662 7.91818 8.05149V10.2577C7.64967 10.5702 7.49887 10.9677 7.49887 11.3776V13.0534C7.49887 13.5739 7.7324 14.0594 8.13233 14.3875C8.51524 15.8869 9.30327 17.0229 9.59447 17.4072V18.7753C9.59447 19.1611 9.38411 19.5156 9.04516 19.7009L5.30731 21.7393C5.18771 21.8045 5.07 21.8797 4.95135 21.9648C2.49411 19.7562 0.945455 16.5559 0.945455 13Z" fill="white"/>
</svg>
