<svg width="40" height="40" viewBox="0 0 40 40" fill="none" xmlns="http://www.w3.org/2000/svg">
<path d="M37.9001 19.3519L33.9001 12.3759H25.6881V10.1079H5.8161V12.3719H2.8681V13.5719H5.8161V16.6119H4.5681V17.8119H5.8161V20.3359H1.1001V21.5359H5.8161V26.6439H10.0001C10.1329 27.5569 10.5901 28.3916 11.2878 28.9953C11.9856 29.5989 12.8774 29.9311 13.8001 29.9311C14.7227 29.9311 15.6146 29.5989 16.3123 28.9953C17.0101 28.3916 17.4673 27.5569 17.6001 26.6439H26.9681C27.1009 27.5569 27.558 28.3916 28.2558 28.9953C28.9536 29.5989 29.8454 29.9311 30.7681 29.9311C31.6907 29.9311 32.5826 29.5989 33.2803 28.9953C33.9781 28.3916 34.4353 27.5569 34.5681 26.6439H37.9161L37.9001 19.3519ZM36.2641 18.9079H28.7721V15.5199H34.3241L36.2641 18.9079ZM13.8081 28.6919C13.2852 28.6919 12.774 28.5368 12.3392 28.2463C11.9044 27.9558 11.5655 27.5428 11.3654 27.0597C11.1652 26.5766 11.1129 26.045 11.2149 25.5321C11.3169 25.0192 11.5687 24.5481 11.9385 24.1783C12.3083 23.8085 12.7794 23.5567 13.2923 23.4547C13.8052 23.3527 14.3368 23.4051 14.8199 23.6052C15.303 23.8053 15.716 24.1442 16.0065 24.579C16.297 25.0138 16.4521 25.525 16.4521 26.0479C16.451 26.7488 16.1721 27.4207 15.6765 27.9163C15.1809 28.4119 14.509 28.6908 13.8081 28.6919ZM17.6001 25.4439C17.4673 24.5309 17.0101 23.6962 16.3123 23.0925C15.6146 22.4889 14.7227 22.1567 13.8001 22.1567C12.8774 22.1567 11.9856 22.4889 11.2878 23.0925C10.5901 23.6962 10.1329 24.5309 10.0001 25.4439H7.0001V24.1319H8.2401V22.9319H7.0161V21.5399H16.7681V20.3399H7.0161V17.8159H12.5481V16.6159H7.0161V13.5759H9.9401V12.3759H7.0161V11.3079H24.4881V12.3719H17.3881V13.5719H24.4881V20.3399H21.1561V21.5399H24.4881V25.4439H17.6001ZM30.7601 28.6919C30.2372 28.6919 29.726 28.5368 29.2912 28.2463C28.8564 27.9558 28.5175 27.5428 28.3174 27.0597C28.1172 26.5766 28.0649 26.045 28.1669 25.5321C28.2689 25.0192 28.5207 24.5481 28.8905 24.1783C29.2603 23.8085 29.7314 23.5567 30.2443 23.4547C30.7572 23.3527 31.2888 23.4051 31.7719 23.6052C32.255 23.8053 32.668 24.1442 32.9585 24.579C33.249 25.0138 33.4041 25.525 33.4041 26.0479C33.403 26.7488 33.1241 27.4207 32.6285 27.9163C32.1329 28.4119 31.461 28.6908 30.7601 28.6919ZM34.5521 25.4439C34.4193 24.5309 33.9621 23.6962 33.2643 23.0925C32.5665 22.4889 31.6747 22.1567 30.7521 22.1567C29.8294 22.1567 28.9376 22.4889 28.2398 23.0925C27.542 23.6962 27.0849 24.5309 26.9521 25.4439H25.6721V13.5719H33.2001L33.6401 14.3199H27.5721V20.1079H36.7001V22.9319H35.4761V24.1319H36.7001V25.4399L34.5521 25.4439Z" fill="#C3C3C3"/>
</svg>
