<svg width="38" height="38" viewBox="0 0 38 38" fill="none" xmlns="http://www.w3.org/2000/svg">
<path d="M20.034 21.7188V20.5788H28.6899C29.0047 20.5788 29.2599 20.834 29.2599 21.1488V28.1974C29.2599 28.5122 29.0047 28.7674 28.6899 28.7674H8.92986C8.61506 28.7674 8.35986 28.5122 8.35986 28.1974V14.3399H9.49986V27.6274H28.1199V21.7188H20.034Z" fill="#C3C3C3"/>
<path d="M20.4583 18.779V23.5335C20.4583 23.9971 19.9344 24.2668 19.5571 23.9974L16.228 21.6201C15.9097 21.3928 15.9097 20.9197 16.228 20.6924L19.5571 18.3151C19.9344 18.0457 20.4583 18.3154 20.4583 18.779Z" fill="#C3C3C3"/>
<path d="M29.2596 14.44C29.2596 14.1252 29.0044 13.87 28.6896 13.87C28.3748 13.87 28.1196 14.1252 28.1196 14.44V17.86C28.1196 18.1748 28.3748 18.43 28.6896 18.43C29.0044 18.43 29.2596 18.1748 29.2596 17.86V14.44Z" fill="#C3C3C3"/>
<path d="M19.3797 10.07C19.3797 9.7552 19.1245 9.5 18.8097 9.5C18.4949 9.5 18.2397 9.7552 18.2397 10.07V14.25C18.2397 14.5648 18.4949 14.82 18.8097 14.82C19.1245 14.82 19.3797 14.5648 19.3797 14.25V10.07Z" fill="#C3C3C3"/>
<path d="M8.93171 14.9331C8.54875 14.9331 8.27475 14.563 8.38654 14.1967L9.89871 9.24217C9.9719 9.00238 10.1932 8.83856 10.4439 8.83856H27.1768C27.4274 8.83856 27.6486 9.00224 27.7219 9.24189L29.2368 14.1964C29.3488 14.5627 29.0748 14.9331 28.6917 14.9331H8.93171ZM27.9214 13.7931L26.755 9.97856H10.8659L9.70164 13.7931H27.9214Z" fill="#C3C3C3"/>
</svg>
