<svg width="30" height="30" viewBox="0 0 30 30" fill="none" xmlns="http://www.w3.org/2000/svg">
<path d="M19.7703 16.3425C16.9109 16.3425 14.585 18.6685 14.585 21.5278C14.585 24.3872 16.9109 26.7132 19.7703 26.7132C22.6296 26.7132 24.9556 24.3872 24.9556 21.5278C24.9556 18.6685 22.6296 16.3425 19.7703 16.3425ZM19.7703 25.7757C17.4275 25.7757 15.5225 23.8707 15.5225 21.5278C15.5225 19.185 17.4275 17.28 19.7703 17.28C22.1131 17.28 24.0181 19.185 24.0181 21.5278C24.0181 23.8707 22.1131 25.7757 19.7703 25.7757Z" fill="#C3C3C3"/>
<path d="M19.7702 14.6541C18.7783 14.6541 17.838 14.8698 16.9849 15.2495V13.9538C16.9849 13.6904 16.8687 13.4485 16.6624 13.2263C16.7355 13.1495 16.7955 13.0688 16.8443 12.9854C16.9305 12.9001 16.9849 12.7829 16.9849 12.6516V10.9482C16.9849 10.6679 16.8565 10.4129 16.6249 10.1795C16.7158 10.0904 16.788 9.99571 16.8452 9.89727C16.9315 9.81196 16.9858 9.69477 16.9858 9.56352V7.86008C16.9858 7.57977 16.8574 7.32477 16.6258 7.09227C16.7168 7.00321 16.788 6.90852 16.8452 6.81102C16.9315 6.72571 16.9858 6.60852 16.9858 6.47727V4.7729C16.9858 3.2804 13.4683 2.60071 10.2002 2.60071C6.93303 2.60071 3.41553 3.28133 3.41553 4.7729V6.47633C3.41553 6.60758 3.46896 6.72477 3.55615 6.81008C3.61334 6.90852 3.68553 7.00227 3.77553 7.09133C3.54396 7.32477 3.41553 7.57977 3.41553 7.86008V9.56352C3.41553 9.69477 3.46896 9.81196 3.55615 9.89727C3.61334 9.99571 3.68553 10.0895 3.77553 10.1785C3.54396 10.411 3.41553 10.667 3.41553 10.9473V12.6507C3.41553 12.782 3.46896 12.8991 3.55615 12.9845C3.6049 13.0679 3.6649 13.1476 3.73803 13.2245C3.53271 13.4466 3.41646 13.6885 3.41646 13.9529V15.6563C3.41646 15.7876 3.4699 15.9048 3.55709 15.9901C3.60584 16.0735 3.66584 16.1532 3.73896 16.2301C3.53365 16.4523 3.4174 16.6941 3.4174 16.9585V18.662C3.4174 18.7932 3.47084 18.9104 3.55803 18.9957C3.60678 19.0791 3.66678 19.1588 3.7399 19.2366C3.53365 19.4588 3.4174 19.7007 3.4174 19.9641V21.6676C3.4174 21.7979 3.47084 21.916 3.55709 22.0004C4.23115 23.1563 7.31178 23.6898 10.2021 23.6898C11.2465 23.6898 12.2646 23.6176 13.188 23.4873C14.0346 26.3241 16.6643 28.3998 19.773 28.3998C23.5624 28.3998 26.6458 25.3163 26.6458 21.527C26.643 17.7376 23.5596 14.6541 19.7702 14.6541ZM10.1993 21.1998C6.40053 21.1998 4.35209 20.3223 4.35209 19.9651C4.35209 19.9641 4.37271 19.891 4.52647 19.772C5.82303 20.3916 8.06178 20.6851 10.1993 20.6851C11.1696 20.6851 12.1155 20.6241 12.9799 20.5126C12.9546 20.6795 12.9349 20.8473 12.9218 21.0179C12.0762 21.1313 11.1537 21.1998 10.1993 21.1998ZM16.0474 12.5007C16.0474 12.8588 13.9971 13.7354 10.1993 13.7354C6.40146 13.7354 4.35209 12.8579 4.35209 12.5007V12.1238C5.61584 12.8016 7.96522 13.1204 10.1993 13.1204C12.4343 13.1204 14.7837 12.8016 16.0474 12.1238V12.5007ZM10.1993 14.6729C12.3387 14.6729 14.5774 14.3795 15.874 13.7598C16.0118 13.8657 16.0474 13.9379 16.0474 13.9538C16.0474 14.3129 13.9971 15.1885 10.1993 15.1885C6.40146 15.1885 4.35209 14.312 4.35209 13.9538C4.35209 13.9379 4.38865 13.8648 4.52553 13.7598C5.82115 14.3795 8.06084 14.6729 10.1993 14.6729ZM10.1993 16.126C12.4343 16.126 14.7837 15.8073 16.0474 15.1295V15.5063C16.0474 15.8654 13.9971 16.741 10.1993 16.741C6.40146 16.741 4.35209 15.8645 4.35209 15.5063V15.1295C5.6149 15.8073 7.96522 16.126 10.1993 16.126ZM13.1937 19.5338C12.2833 19.6707 11.2587 19.7466 10.1993 19.7466C6.40053 19.7466 4.35209 18.8691 4.35209 18.512V18.1351C5.61584 18.8129 7.96522 19.1316 10.1993 19.1316C11.3346 19.1316 12.4455 19.0501 13.4215 18.8991C13.3352 19.1063 13.2593 19.3182 13.1937 19.5338ZM13.9783 17.8416C12.9058 18.0676 11.5783 18.1951 10.1993 18.1951C6.40053 18.1951 4.35209 17.3176 4.35209 16.9604C4.35209 16.9445 4.38865 16.8713 4.52553 16.7663C5.82209 17.386 8.06084 17.6795 10.1993 17.6795C11.6599 17.6795 13.1683 17.5426 14.3927 17.2585C14.2446 17.4451 14.1068 17.6401 13.9783 17.8416ZM4.35209 9.41258V9.03571C5.61584 9.71352 7.96522 10.0323 10.1993 10.0323C12.4343 10.0323 14.7837 9.71352 16.0474 9.03571V9.41258C16.0474 9.77165 13.9971 10.6473 10.1993 10.6473C6.40146 10.6473 4.35209 9.77165 4.35209 9.41258ZM4.35209 6.3254V5.94852C5.61584 6.62633 7.96522 6.94508 10.1993 6.94508C12.4343 6.94508 14.7837 6.62633 16.0474 5.94852V6.3254C16.0474 6.68446 13.9971 7.56008 10.1993 7.56008C6.40146 7.56008 4.35209 6.68446 4.35209 6.3254ZM10.1993 3.53727C13.998 3.53727 16.0474 4.41477 16.0474 4.77196C16.0343 5.13008 13.9699 6.00665 10.1993 6.00665C6.42959 6.00665 4.36428 5.12915 4.35209 4.77196C4.35209 4.41477 6.40053 3.53727 10.1993 3.53727ZM10.1993 8.49758C12.2993 8.49758 14.4968 8.21446 15.8037 7.61821C15.9912 7.74665 16.0465 7.84133 16.0474 7.85915C16.0474 8.21821 13.9971 9.09383 10.1993 9.09383C6.40146 9.09383 4.35209 8.21915 4.35209 7.86008C4.35209 7.85915 4.38303 7.7654 4.59678 7.61915C5.90271 8.2154 8.10021 8.49758 10.1993 8.49758ZM10.1993 11.5848C12.2993 11.5848 14.4958 11.3026 15.8027 10.7054C15.994 10.8357 16.0474 10.9295 16.0474 10.9473C16.0474 11.3054 13.9971 12.182 10.1993 12.182C6.40146 12.182 4.35209 11.3045 4.35209 10.9473C4.35209 10.9285 4.40646 10.8348 4.59678 10.7054C5.90365 11.3026 8.10021 11.5848 10.1993 11.5848ZM10.1993 22.7541C6.42959 22.7541 4.36428 21.8766 4.35209 21.5195V21.1407C5.61584 21.8185 7.96522 22.1373 10.1993 22.1373C11.148 22.1373 12.0649 22.0679 12.918 21.961C12.9312 22.1663 12.9527 22.3698 12.9837 22.5704C12.123 22.6885 11.1733 22.7541 10.1993 22.7541ZM19.7702 27.4632C16.4974 27.4632 13.834 24.8007 13.834 21.5279C13.834 18.2551 16.4974 15.5916 19.7702 15.5916C23.043 15.5916 25.7055 18.2551 25.7055 21.5279C25.7055 24.8007 23.043 27.4632 19.7702 27.4632Z" fill="#C3C3C3"/>
<path d="M21.304 21.3526C21.138 21.2354 20.9355 21.1342 20.6993 21.0517C20.4621 20.9701 20.1977 20.8942 19.9052 20.8258C19.6718 20.7667 19.504 20.7217 19.4027 20.6908C19.3015 20.6598 19.2021 20.6176 19.1018 20.5633C19.0033 20.5098 18.9255 20.4451 18.8683 20.3692C18.8121 20.2942 18.784 20.2042 18.784 20.1011C18.784 19.9333 18.8665 19.7898 19.0324 19.6708C19.1102 19.6155 19.2012 19.5751 19.3015 19.5461V19.877C19.3015 20.1358 19.5115 20.3458 19.7702 20.3458C20.029 20.3458 20.239 20.1358 20.239 19.877V19.6155C20.2662 19.6305 20.3037 19.6389 20.3262 19.6567C20.4583 19.7664 20.5718 19.9192 20.6665 20.1151C20.7387 20.252 20.8071 20.3505 20.869 20.4105C20.9318 20.4705 21.0227 20.5005 21.1437 20.5005C21.2758 20.5005 21.3855 20.4498 21.4746 20.3495C21.5637 20.2501 21.6077 20.1367 21.6077 20.012C21.6077 19.8751 21.5721 19.7345 21.5008 19.5911C21.4305 19.4467 21.319 19.3098 21.1652 19.1786C21.0115 19.0473 20.8193 18.9423 20.5868 18.8636C20.4808 18.828 20.3637 18.8026 20.2399 18.7829V18.5073C20.2399 18.2486 20.0299 18.0386 19.7712 18.0386C19.5124 18.0386 19.3024 18.2486 19.3024 18.5073V18.782C19.0924 18.8111 18.8946 18.8542 18.7212 18.9245C18.4268 19.0436 18.2018 19.2142 18.0452 19.4355C17.8896 19.6567 17.8118 19.9108 17.8118 20.1967C17.8118 20.4958 17.8849 20.7461 18.0321 20.9476C18.1793 21.1492 18.379 21.3076 18.6302 21.4248C18.8177 21.512 19.0502 21.588 19.3052 21.6592C19.3052 21.6639 19.3024 21.6676 19.3024 21.6723V23.2642C19.2687 23.252 19.2283 23.2445 19.1974 23.2295C19.0587 23.1583 18.9508 23.0664 18.8749 22.9548C18.798 22.8442 18.7268 22.7064 18.6602 22.5404C18.6068 22.4017 18.5412 22.2967 18.4643 22.2264C18.3874 22.1561 18.2937 22.1195 18.183 22.1195C18.0462 22.1195 17.9337 22.1655 17.8446 22.2555C17.7565 22.3464 17.7124 22.4561 17.7124 22.5826C17.7124 22.802 17.7855 23.028 17.9327 23.2595C18.0799 23.492 18.2721 23.6776 18.5074 23.8164C18.7277 23.9448 19.0024 24.0142 19.3015 24.0583V24.5467C19.3015 24.8055 19.5115 25.0155 19.7702 25.0155C20.029 25.0155 20.239 24.8055 20.239 24.5467V24.0667C20.4715 24.033 20.6908 23.9823 20.8812 23.8961C21.1924 23.7545 21.4287 23.5586 21.5899 23.3083C21.7521 23.0589 21.8327 22.7767 21.8327 22.4636C21.8327 22.202 21.7858 21.9808 21.693 21.8008C21.5993 21.6198 21.4699 21.4708 21.304 21.3526ZM20.5043 23.1189C20.4274 23.1761 20.3337 23.2136 20.239 23.2483V21.9151C20.4012 21.9723 20.5352 22.052 20.6383 22.157C20.7443 22.2648 20.7958 22.4045 20.7958 22.5761C20.7958 22.7936 20.6983 22.9745 20.5043 23.1189Z" fill="#C3C3C3"/>
</svg>
