<svg width="20" height="22" viewBox="0 0 20 22" fill="none" xmlns="http://www.w3.org/2000/svg">
<path fill-rule="evenodd" clip-rule="evenodd" d="M14.4162 14.3096L19.8295 20.0078C20.0568 20.2468 20.0568 20.6344 19.8295 20.8734C19.7163 20.9929 19.5674 21.0526 19.4187 21.0526C19.2699 21.0526 19.121 20.9929 19.0075 20.8734L13.5936 15.1749C12.1513 16.4938 10.2708 17.2947 8.21487 17.2947C3.68499 17.2947 0 13.4156 0 8.6476C0 3.87962 3.68499 0 8.21487 0C12.7448 0 16.43 3.87937 16.43 8.64736C16.43 10.8117 15.6691 12.7912 14.4162 14.3096ZM8.21426 1.22436C4.32596 1.22436 1.16251 4.55426 1.16251 8.6474C1.16251 12.7403 4.32596 16.0702 8.21426 16.0702C12.1028 16.0702 15.2663 12.7403 15.2663 8.6474C15.2663 4.5545 12.1028 1.22436 8.21426 1.22436Z" fill="white"/>
</svg>
