<svg width="20" height="20" viewBox="0 0 20 20" fill="none" xmlns="http://www.w3.org/2000/svg">
<g clip-path="url(#clip0_247_430)">
<path d="M3.59082 14.4828L4.48252 13.5911L6.40888 15.5174L5.51717 16.409L3.59082 14.4828Z" fill="#213FDF"/>
<path d="M4.79796 11.8373C4.72489 11.7642 4.6279 11.7241 4.52452 11.7241C4.31136 11.7241 4.13794 11.8975 4.13794 12.1107C4.13794 12.2124 4.17936 12.3121 4.25109 12.3841L7.61585 15.7489C7.68892 15.822 7.78591 15.8621 7.88929 15.8621C8.10245 15.8621 8.27587 15.6886 8.27587 15.4755C8.27587 15.3738 8.23445 15.2741 8.16272 15.202L4.79796 11.8373Z" fill="#213FDF"/>
<path d="M6.00439 12.0689L6.8961 11.1772L8.82245 13.1036L7.93075 13.9953L6.00439 12.0689Z" fill="#213FDF"/>
<path d="M2.38414 14.2511C2.31107 14.178 2.21409 14.1379 2.11071 14.1379C1.89755 14.1379 1.72412 14.3114 1.72412 14.5245C1.72412 14.6262 1.76554 14.7259 1.83727 14.798L5.20203 18.1627C5.2751 18.2358 5.37209 18.2759 5.47547 18.2759C5.68863 18.2759 5.86205 18.1024 5.86205 17.8893C5.86205 17.7876 5.82063 17.6879 5.74891 17.6158L2.38414 14.2511Z" fill="#213FDF"/>
<path d="M7.21178 9.42345C7.1387 9.35038 7.04172 9.3103 6.93834 9.3103C6.72518 9.3103 6.55176 9.48373 6.55176 9.69689C6.55176 9.79858 6.59318 9.89826 6.6649 9.97032L10.0297 13.3351C10.1027 13.4082 10.1997 13.4482 10.3031 13.4482C10.5163 13.4482 10.6897 13.2748 10.6897 13.0616C10.6897 12.96 10.6483 12.8603 10.5765 12.7882L7.21178 9.42345Z" fill="#213FDF"/>
<path d="M2.06905 18.2759C2.06905 18.4663 1.91465 18.6207 1.72422 18.6207C1.53379 18.6207 1.37939 18.4663 1.37939 18.2759C1.37939 18.0854 1.53379 17.931 1.72422 17.931C1.91465 17.931 2.06905 18.0854 2.06905 18.2759Z" fill="#213FDF"/>
<path d="M0.399044 17.6751C0.14177 17.9324 0 18.2742 0 18.6382C0 19.3893 0.611025 20 1.36214 20C1.72582 20 2.06796 19.8583 2.32523 19.6015L3.99515 17.9311L2.06897 16.0049L0.399044 17.6751ZM2.75862 18.2759C2.75862 18.8462 2.29442 19.3104 1.72414 19.3104C1.15386 19.3104 0.689655 18.8462 0.689655 18.2759C0.689655 17.7056 1.15386 17.2414 1.72414 17.2414C2.29442 17.2414 2.75862 17.7056 2.75862 18.2759Z" fill="#213FDF"/>
<path d="M10.832 7.24156L11.7237 6.34985L13.6501 8.27604L12.7584 9.16774L10.832 7.24156Z" fill="#213FDF"/>
<path d="M18.6208 1.7241C18.6208 1.91453 18.4664 2.06893 18.276 2.06893C18.0856 2.06893 17.9312 1.91453 17.9312 1.7241C17.9312 1.53367 18.0856 1.37927 18.276 1.37927C18.4664 1.37927 18.6208 1.53367 18.6208 1.7241Z" fill="#213FDF"/>
<path d="M15.0031 2.04268C14.798 1.83727 14.5249 1.72412 14.2345 1.72412C13.8821 1.72412 13.5612 1.89586 13.3569 2.17923L17.8205 6.6428C18.1039 6.43923 18.2759 6.11832 18.2759 5.76591C18.2759 5.47513 18.1628 5.20203 17.9574 4.99695L15.0031 2.04268Z" fill="#213FDF"/>
<path d="M18.1503 0C17.6561 0 17.1916 0.19245 16.8422 0.541655L15.6599 1.72414L18.2758 4.33998L19.4582 3.15766C19.8074 2.80829 19.9999 2.34375 19.9999 1.84958C19.9999 0.829573 19.1703 0 18.1503 0ZM18.2758 2.75862C17.7055 2.75862 17.2413 2.29442 17.2413 1.72414C17.2413 1.15386 17.7055 0.689655 18.2758 0.689655C18.846 0.689655 19.3102 1.15386 19.3102 1.72414C19.3102 2.29442 18.846 2.75862 18.2758 2.75862Z" fill="#213FDF"/>
<path d="M9.6256 7.00975C9.55252 6.93668 9.45554 6.89661 9.35216 6.89661C9.139 6.89661 8.96558 7.07003 8.96558 7.28319C8.96558 7.38489 9.007 7.48456 9.07872 7.55663L12.4435 10.9214C12.5166 10.9945 12.6135 11.0345 12.7169 11.0345C12.9301 11.0345 13.1035 10.8611 13.1035 10.648C13.1035 10.5463 13.0621 10.4466 12.9904 10.3745L9.6256 7.00975Z" fill="#213FDF"/>
<path d="M8.41821 9.65521L9.30992 8.76367L11.2363 10.6899L10.3446 11.5816L8.41821 9.65521Z" fill="#213FDF"/>
<path d="M11.4739 5.12413L14.876 8.52627L17.23 7.02792L12.9722 2.76978L11.4739 5.12413Z" fill="#213FDF"/>
</g>
<defs>
<clipPath id="clip0_247_430">
<rect width="20" height="20" fill="white"/>
</clipPath>
</defs>
</svg>
