<svg width="21" height="21" viewBox="0 0 21 21" fill="none" xmlns="http://www.w3.org/2000/svg">
<g clip-path="url(#clip0_247_423)">
<path d="M7.07921 17.1697V9.80903C7.07921 9.11833 7.55233 8.57728 8.15635 8.57728H11.0797V7.74799C11.0797 7.56006 11.0515 7.37901 10.9996 7.20886H2.418C2.36609 7.37901 2.33789 7.56006 2.33789 7.74799V19.2614C2.33789 20.2201 3.18528 21 4.22701 21H9.19023C10.2321 21 11.0797 20.2201 11.0797 19.2614V18.4012H8.15635C7.55233 18.4012 7.07921 17.8603 7.07921 17.1697Z" fill="#213FDF"/>
<path d="M8.30957 9.80902V17.1697C8.30957 17.1701 11.0796 17.1707 11.0796 17.1707V9.80774C11.0796 9.80774 8.30957 9.80854 8.30957 9.80902Z" fill="#213FDF"/>
<path d="M3.48096 4.28613H9.93644V5.97834H3.48096V4.28613Z" fill="#213FDF"/>
<path d="M9.17764 1.8231C9.17764 1.22581 8.77405 0.757812 8.25896 0.757812H5.15811C4.64301 0.757812 4.23975 1.22581 4.23975 1.8231V3.05565H9.17764V1.8231Z" fill="#213FDF"/>
<path d="M18.2077 1.22116L17.3999 1.3636C17.0652 1.42272 16.7462 1.19921 16.6871 0.864681C16.6281 0.529987 16.8516 0.210833 17.1861 0.151873L17.9939 0.00944005C18.3286 -0.04952 18.6476 0.173823 18.7067 0.508517C18.7657 0.843051 18.5424 1.1622 18.2077 1.22116ZM15.3802 1.71976L14.5723 1.86219C14.2378 1.92115 13.9187 1.69781 13.8597 1.36312C13.8006 1.02858 14.0241 0.70943 14.3586 0.65047L15.1666 0.508037C15.5011 0.448916 15.8203 0.67242 15.8792 1.00695C15.9382 1.34165 15.7149 1.6608 15.3802 1.71976ZM12.5526 2.21836L11.7448 2.36079C11.4103 2.41975 11.0911 2.19625 11.0322 1.86171C10.9731 1.52718 11.1966 1.20803 11.5313 1.14891L12.3391 1.00647C12.6736 0.947513 12.9928 1.17102 13.0517 1.50555C13.1108 1.84024 12.8873 2.1594 12.5526 2.21836Z" fill="#213FDF"/>
<path d="M18.7067 4.85561C18.6477 5.1903 18.3286 5.41365 17.9939 5.35469L17.1861 5.21225C16.8516 5.15313 16.6281 4.83414 16.6872 4.49945C16.7461 4.16491 17.0653 3.94141 17.3998 4.00053L18.2076 4.14296C18.5423 4.20192 18.7657 4.52108 18.7067 4.85561ZM15.8792 4.35701C15.8202 4.69171 15.5011 4.91521 15.1665 4.85609L14.3586 4.71366C14.024 4.6547 13.8005 4.33554 13.8597 4.00101C13.9186 3.66632 14.2378 3.44297 14.5723 3.50193L15.3801 3.64437C15.7148 3.70333 15.9382 4.02248 15.8792 4.35701ZM13.0517 3.85858C12.9927 4.19311 12.6736 4.41661 12.339 4.35749L11.5312 4.21506C11.1965 4.1561 10.9732 3.83695 11.0321 3.50241C11.0911 3.16772 11.4103 2.94438 11.745 3.00334L12.5528 3.14577C12.8873 3.20473 13.1108 3.52388 13.0517 3.85858Z" fill="#213FDF"/>
</g>
<defs>
<clipPath id="clip0_247_423">
<rect width="21" height="21" fill="white"/>
</clipPath>
</defs>
</svg>
