<svg width="24" height="24" viewBox="0 0 24 24" fill="none" xmlns="http://www.w3.org/2000/svg">
<g clip-path="url(#clip0_247_418)">
<path d="M0.669776 10.1762C1.01629 10.4641 3.22327 12.3126 3.97872 12.9506C4.02146 12.9867 4.34562 14.9295 4.49063 15.841C4.62513 16.6866 5.20679 17.3819 6.21148 17.3503C6.88896 17.3289 11.3176 17.3408 12.8536 17.3491C13.3229 17.3517 13.7193 17.1989 14.0606 16.8833C14.3148 16.6484 19.6385 11.9833 20.3188 11.3872C20.3641 11.3475 20.4244 11.3295 20.4841 11.3377L21.3464 11.4566C21.4519 11.4711 21.5513 11.4037 21.5768 11.3003L21.9139 9.93254C21.9387 9.83192 21.8857 9.72834 21.7895 9.68974L19.8862 8.92545C19.8298 8.90279 19.7662 8.90597 19.7123 8.93417C19.2069 9.19862 16.5969 10.5653 15.9549 10.9193C15.9549 10.9193 15.0569 10.2784 14.6583 9.99395C14.3469 9.77171 13.9995 9.62188 13.5969 9.6262C12.7648 9.63514 11.0232 9.62845 10.9814 9.62845V9.45479C10.9814 9.38289 11.0397 9.32461 11.1116 9.32461H12.0193C12.1061 9.32461 12.1764 9.25428 12.1764 9.1675V7.39453C12.1764 7.30778 12.1061 7.23745 12.0194 7.23742L7.24979 7.23555C7.16304 7.23553 7.09268 7.30578 7.09263 7.39254L7.09132 9.1729C7.09124 9.25973 7.16162 9.33014 7.24843 9.33014H8.08176C8.15366 9.33014 8.21194 9.38842 8.21194 9.46035V9.62847L6.30525 9.62953C6.30525 9.62953 3.01228 6.91512 2.72256 6.80204C2.25322 6.61886 1.7831 6.58773 1.30974 6.77458C0.765473 6.98939 0.402719 7.38711 0.169161 7.91622C-0.180405 8.70837 0.0239739 9.63951 0.669776 10.1762ZM5.77607 10.7509C7.0588 10.7429 8.34164 10.7481 9.62443 10.748C10.9037 10.7479 12.1829 10.7475 13.4621 10.7474C13.4704 10.7467 13.4786 10.7462 13.4866 10.7459C13.6492 10.7401 13.6612 10.9846 13.4992 10.9987C12.2409 11.1078 7.74697 11.4635 6.63825 11.5511C6.49531 11.5623 6.38221 11.6765 6.37218 11.8195C6.37218 11.8195 6.09559 15.7634 6.09494 15.7728C6.08741 15.8801 5.95374 15.9528 5.85201 15.947C5.70846 15.9389 5.70227 15.8452 5.68641 15.7257C5.65849 15.5154 5.63212 15.3048 5.60493 15.0943C5.52932 14.5085 5.45363 13.9227 5.37774 13.337C5.29794 12.721 5.23432 12.0999 5.13559 11.4865C5.06223 11.0311 5.3541 10.7535 5.77607 10.7509ZM1.13194 8.36249C1.36067 7.802 2.02626 7.49076 2.54221 7.91344C2.54771 7.91796 4.75796 9.72864 4.75796 9.72864C4.04855 10.0696 3.67106 10.586 3.80574 11.4147C3.64848 11.2832 2.0381 9.93822 1.37586 9.37784C1.06722 9.11664 0.979224 8.73671 1.13194 8.36249Z" fill="#213FDF"/>
<path d="M22.8489 11.7163C22.7416 11.6022 22.6252 11.5018 22.4916 11.4192C22.3663 11.3416 22.2095 11.4467 22.227 11.5931C22.2658 11.9177 22.1909 12.2233 22.0476 12.5201C21.6219 13.402 20.7703 14.4929 21.5298 15.4415C21.97 15.9912 22.8579 16.1393 23.419 15.7138C23.8942 15.3534 24.0595 14.6933 23.9815 14.1019C23.874 13.2871 23.4124 12.3153 22.8489 11.7163Z" fill="#213FDF"/>
</g>
<defs>
<clipPath id="clip0_247_418">
<rect width="24" height="24" fill="white"/>
</clipPath>
</defs>
</svg>
