<svg width="20" height="20" viewBox="0 0 20 20" fill="none" xmlns="http://www.w3.org/2000/svg">
<g clip-path="url(#clip0_310_2)">
<path d="M9.9925 2.5C5.8525 2.5 2.5 5.86 2.5 10C2.5 14.14 5.8525 17.5 9.9925 17.5C14.14 17.5 17.5 14.14 17.5 10C17.5 5.86 14.14 2.5 9.9925 2.5ZM10 16C6.685 16 4 13.315 4 10C4 6.685 6.685 4 10 4C13.315 4 16 6.685 16 10C16 13.315 13.315 16 10 16Z" fill="black"/>
<path d="M10.2083 6.66663H9.16663V11.0382L12.8125 13.3333L13.3333 12.4371L10.2083 10.4918V6.66663Z" fill="black"/>
</g>
<defs>
<clipPath id="clip0_310_2">
<rect width="20" height="20" fill="white"/>
</clipPath>
</defs>
</svg>
